# Blender v2.75 (sub 0) OBJ File: 'model.blend'
# www.blender.org
mtllib model.mtl
o Circle
v 0.275796 0.702873 -1.900000
v 0.173542 0.700000 -2.000000
v 0.152000 0.900000 -2.000000
v 0.252000 0.900000 -1.900000
v 0.244785 0.706365 -1.970711
v 0.234134 0.800957 -1.976271
v 0.162771 0.800000 -2.000000
v 0.222711 0.900000 -1.970711
v 0.258970 0.800841 -1.900000
v -0.275796 0.702873 -1.900000
v -0.252000 0.900000 -1.900000
v -0.152000 0.900000 -2.000000
v -0.173542 0.700000 -2.000000
v -0.258970 0.800841 -1.900000
v -0.234134 0.800957 -1.976271
v -0.222711 0.900000 -1.970711
v -0.162771 0.800000 -2.000000
v -0.244785 0.706365 -1.970711
v 0.173542 0.700000 2.000000
v 0.275796 0.702873 1.900000
v 0.252000 0.900000 1.900000
v 0.152000 0.900000 2.000000
v 0.244785 0.706365 1.970711
v 0.234134 0.800957 1.976271
v 0.258970 0.800841 1.900000
v 0.222711 0.900000 1.970711
v 0.162771 0.800000 2.000000
v -0.275796 0.702873 1.900000
v -0.173542 0.700000 2.000000
v -0.152000 0.900000 2.000000
v -0.252000 0.900000 1.900000
v -0.244785 0.706365 1.970711
v -0.234134 0.800957 1.976271
v -0.162771 0.800000 2.000000
v -0.222711 0.900000 1.970711
v -0.258970 0.800841 1.900000
v -0.222542 0.500000 2.000000
v -0.326204 0.497127 1.900000
v -0.385112 0.306367 1.900000
v -0.280700 0.300000 2.000000
v -0.294489 0.503492 1.970711
v -0.327843 0.401940 1.976271
v -0.353314 0.401024 1.900000
v -0.352298 0.310456 1.970711
v -0.251621 0.400000 2.000000
v 0.326204 0.497127 1.900000
v 0.222542 0.500000 2.000000
v 0.280700 0.300000 2.000000
v 0.385112 0.306367 1.900000
v 0.294489 0.503492 1.970711
v 0.327843 0.401940 1.976271
v 0.251621 0.400000 2.000000
v 0.352298 0.310456 1.970711
v 0.353314 0.401024 1.900000
v -0.222542 0.500000 -2.000000
v -0.280700 0.300000 -2.000000
v -0.385112 0.306367 -1.900000
v -0.326204 0.497127 -1.900000
v -0.251621 0.400000 -2.000000
v -0.327843 0.401940 -1.976271
v -0.352298 0.310456 -1.970711
v -0.353314 0.401024 -1.900000
v -0.294489 0.503492 -1.970711
v 0.222542 0.500000 -2.000000
v 0.326204 0.497127 -1.900000
v 0.385112 0.306367 -1.900000
v 0.280700 0.300000 -2.000000
v 0.294489 0.503492 -1.970711
v 0.327843 0.401940 -1.976271
v 0.353314 0.401024 -1.900000
v 0.352298 0.310456 -1.970711
v 0.251621 0.400000 -2.000000
v 0.464888 0.093633 -1.900000
v 0.400000 0.000000 -1.900000
v 0.355700 0.100000 -2.000000
v 0.462329 0.026106 -1.900000
v 0.440953 0.040919 -1.957735
v 0.385122 0.030608 -1.970711
v 0.431004 0.096816 -1.970711
v -0.464888 0.093633 -1.900000
v -0.355700 0.100000 -2.000000
v -0.400000 0.000000 -1.900000
v -0.431004 0.096816 -1.970711
v -0.440953 0.040919 -1.957735
v -0.385122 0.030608 -1.970711
v -0.462329 0.026106 -1.900000
v 0.355700 0.100000 2.000000
v 0.400000 0.000000 1.900000
v 0.464888 0.093633 1.900000
v 0.385122 0.030608 1.970711
v 0.440953 0.040919 1.957735
v 0.462329 0.026106 1.900000
v 0.431004 0.096816 1.970711
v -0.464888 0.093633 1.900000
v -0.400000 0.000000 1.900000
v -0.355700 0.100000 2.000000
v -0.462329 0.026106 1.900000
v -0.440953 0.040919 1.957735
v -0.385122 0.030608 1.970711
v -0.431004 0.096816 1.970711
v 0.152000 1.700000 -2.000000
v 0.152000 1.800000 -1.900000
v 0.252000 1.700000 -1.900000
v 0.152000 1.770711 -1.970711
v 0.209735 1.757735 -1.957735
v 0.222711 1.770711 -1.900000
v 0.222711 1.700000 -1.970711
v -0.152000 1.700000 -2.000000
v -0.252000 1.700000 -1.900000
v -0.152000 1.800000 -1.900000
v -0.222711 1.700000 -1.970711
v -0.209735 1.757735 -1.957735
v -0.222711 1.770711 -1.900000
v -0.152000 1.770711 -1.970711
v 0.252000 1.700000 1.900000
v 0.152000 1.800000 1.900000
v 0.152000 1.700000 2.000000
v 0.222711 1.770711 1.900000
v 0.209735 1.757735 1.957735
v 0.152000 1.770711 1.970711
v 0.222711 1.700000 1.970711
v -0.152000 1.700000 2.000000
v -0.152000 1.800000 1.900000
v -0.252000 1.700000 1.900000
v -0.152000 1.770711 1.970711
v -0.209735 1.757735 1.957735
v -0.222711 1.770711 1.900000
v -0.222711 1.700000 1.970711
v 0.252000 1.100000 -1.900000
v 0.252000 1.100000 1.900000
v 0.252000 1.500000 -1.900000
v 0.252000 1.500000 1.900000
v -0.252000 1.100000 -1.900000
v -0.252000 1.100000 1.900000
v -0.252000 1.500000 -1.900000
v -0.252000 1.500000 1.900000
vt 0.000138 0.207109
vt 0.000138 0.026240
vt 0.047650 0.067768
vt 0.613934 0.240597
vt 0.633652 0.120868
vt 0.690660 0.096309
vt 0.024350 0.641362
vt 0.023432 0.609010
vt 0.596241 0.608470
vt 0.545199 0.366556
vt 0.642189 0.448734
vt 0.026753 0.449417
vt 0.032439 0.704289
vt 0.026447 0.671449
vt 0.593125 0.671121
vt 0.563653 0.357277
vt 0.575118 0.334779
vt 0.662858 0.374372
vt 0.587235 0.745266
vt 0.593226 0.778107
vt 0.026549 0.778435
vt 0.595716 0.870043
vt 0.590972 0.906899
vt 0.028345 0.907287
vt 0.030257 0.000138
vt 0.672217 0.062073
vt 0.621880 0.100734
vt 0.013968 0.413210
vt 0.007950 0.355519
vt 0.112519 0.306413
vt 0.595324 0.808193
vt 0.596242 0.840545
vt 0.023433 0.841086
vt 0.095321 0.272335
vt 0.003787 0.305648
vt 0.003286 0.254252
vt 0.607900 0.842009
vt 0.607792 0.856253
vt 0.596065 0.855412
vt 0.619536 0.843040
vt 0.618597 0.857853
vt 0.606824 0.870834
vt 0.596099 0.593588
vt 0.607807 0.592787
vt 0.607902 0.607025
vt 0.595829 0.578940
vt 0.606833 0.578211
vt 0.618619 0.591217
vt 0.619536 0.606002
vt 0.000138 0.843554
vt 0.011772 0.842531
vt 0.011867 0.856769
vt 0.023575 0.855968
vt 0.023845 0.870616
vt 0.012841 0.871345
vt 0.001055 0.858339
vt 0.011773 0.607547
vt 0.011882 0.593302
vt 0.023609 0.594144
vt 0.000138 0.606516
vt 0.001076 0.591702
vt 0.012850 0.578721
vt 0.023958 0.579512
vt 0.012404 0.639711
vt 0.012996 0.656078
vt 0.000958 0.653636
vt 0.025201 0.656520
vt 0.014349 0.670718
vt 0.001841 0.670301
vt 0.024385 0.808642
vt 0.012397 0.810308
vt 0.012971 0.793875
vt 0.000865 0.796354
vt 0.001695 0.779545
vt 0.014333 0.779125
vt 0.025245 0.793442
vt 0.618809 0.653203
vt 0.606703 0.655682
vt 0.607277 0.639248
vt 0.617979 0.670011
vt 0.605341 0.670431
vt 0.594428 0.656114
vt 0.595289 0.640914
vt 0.607269 0.809844
vt 0.606678 0.793477
vt 0.618716 0.795919
vt 0.594473 0.793036
vt 0.605325 0.778838
vt 0.617833 0.779254
vt 0.586843 0.735602
vt 0.595156 0.737351
vt 0.590647 0.724918
vt 0.603246 0.732676
vt 0.598547 0.744753
vt 0.587051 0.704495
vt 0.598482 0.705008
vt 0.595079 0.712483
vt 0.603141 0.717138
vt 0.590636 0.724640
vt 0.586784 0.714385
vt 0.016533 0.732418
vt 0.024595 0.737073
vt 0.021192 0.744548
vt 0.029038 0.724916
vt 0.032889 0.735171
vt 0.032623 0.745061
vt 0.032831 0.713954
vt 0.024518 0.712204
vt 0.029027 0.724638
vt 0.016428 0.716880
vt 0.021127 0.704802
vt 0.604924 0.983339
vt 0.598111 0.993734
vt 0.592204 0.987280
vt 0.587038 0.999862
vt 0.584225 0.988659
vt 0.584108 0.977991
vt 0.594367 0.979505
vt 0.605550 0.466597
vt 0.595089 0.470326
vt 0.592965 0.462615
vt 0.584949 0.471812
vt 0.585002 0.461286
vt 0.587817 0.449873
vt 0.598914 0.456193
vt 0.034725 0.977744
vt 0.034673 0.988270
vt 0.026709 0.986941
vt 0.031857 0.999683
vt 0.020760 0.993363
vt 0.014124 0.982959
vt 0.024585 0.979231
vt 0.014750 0.466217
vt 0.021563 0.455821
vt 0.027470 0.462276
vt 0.032636 0.449694
vt 0.035449 0.460897
vt 0.035566 0.471564
vt 0.025307 0.470051
vt 0.619056 0.637129
vt 0.000656 0.637622
vt 0.000618 0.812427
vt 0.619018 0.811934
vt 0.603300 0.274355
vt 0.608471 0.257486
vt 0.668645 0.271195
vt 0.670553 0.251887
vt 0.001505 0.230668
vt 0.074247 0.217003
vt 0.067969 0.194797
vt 0.008468 0.744468
vt 0.611159 0.744695
vt 0.611206 0.705088
vt 0.008515 0.704861
vt 0.005464 0.330465
vt 0.103652 0.289082
vt 0.581777 0.320904
vt 0.665059 0.354049
vt 0.588911 0.305826
vt 0.557177 0.364593
vt 0.649113 0.435769
vt 0.653488 0.420334
vt 0.018208 0.431444
vt 0.139475 0.342453
vt 0.130020 0.333785
vt 0.631200 0.109634
vt 0.682849 0.079439
vt 0.014826 0.011957
vt 0.054677 0.058402
vt 0.066480 0.052710
vt 0.001848 0.872791
vt 0.001960 0.577235
vt 0.617826 0.576765
vt 0.666073 0.333369
vt 0.032569 0.947274
vt 0.586470 0.947215
vt 0.587106 0.502282
vt 0.033204 0.502341
vt 0.028702 0.542657
vt 0.591329 0.542269
vt 0.154424 0.347891
vt 0.079863 0.236692
vt 0.617714 0.872321
vt 0.666411 0.290606
vn 0.188600 0.009800 0.982000
vn 0.179400 0.179400 0.967300
vn -0.179400 0.179400 0.967300
vn -0.188600 0.009800 -0.982000
vn -0.179400 0.179400 -0.967300
vn 0.179400 0.179400 -0.967300
vn -0.947800 0.261000 0.183200
vn -0.959400 0.201000 0.197900
vn -0.959400 0.201000 -0.197900
vn -0.188200 -0.961800 -0.198700
vn 0.188200 -0.961800 -0.198700
vn 0.188200 -0.961800 0.198700
vn -0.966600 0.161500 0.198700
vn -0.923700 0.328000 0.197900
vn -0.923700 0.328000 -0.197900
vn -0.180600 -0.126200 -0.975400
vn -0.172800 0.046800 -0.983800
vn 0.172800 0.046800 -0.983800
vn 0.966600 0.161500 -0.198700
vn 0.923700 0.328000 -0.197900
vn 0.923700 0.328000 0.197900
vn 0.981300 0.043900 -0.187300
vn 1.000000 0.000000 0.000000
vn 0.179400 0.967300 0.179400
vn 0.179400 0.967300 -0.179400
vn -0.179400 0.967300 -0.179400
vn 0.180600 -0.126200 0.975400
vn 0.172800 0.046800 0.983800
vn -0.172800 0.046800 0.983800
vn 0.947800 0.261000 -0.183200
vn 0.959400 0.201000 -0.197900
vn 0.959400 0.201000 0.197900
vn -0.186700 0.049500 0.981100
vn 0.186700 0.049500 0.981100
vn 0.176800 0.023100 0.983900
vn 0.697300 0.114400 -0.707500
vn 0.698300 0.077400 -0.711500
vn 0.980100 0.107800 -0.166800
vn 0.176800 0.023100 -0.983900
vn 0.167100 0.026700 -0.985600
vn 0.696700 0.051300 -0.715500
vn -0.980100 0.107800 -0.166800
vn -0.698300 0.077400 -0.711500
vn -0.697300 0.114400 -0.707500
vn -0.981300 0.043900 -0.187300
vn -0.696700 0.051300 -0.715500
vn -0.167100 0.026700 -0.985600
vn -0.176800 0.023100 -0.983900
vn 0.697300 0.114400 0.707500
vn 0.698300 0.077400 0.711500
vn 0.980100 0.107800 0.166800
vn 0.981300 0.043900 0.187300
vn 0.696700 0.051300 0.715500
vn 0.167100 0.026700 0.985600
vn -0.697300 0.114400 0.707500
vn -0.698300 0.077400 0.711500
vn -0.980100 0.107800 0.166800
vn -0.176800 0.023100 0.983900
vn -0.167100 0.026700 0.985600
vn -0.696700 0.051300 0.715500
vn -0.981300 0.043900 0.187300
vn -0.674000 0.200300 0.711000
vn -0.678300 0.198200 0.707500
vn -0.157500 0.056900 0.985900
vn -0.945700 0.280300 0.164700
vn -0.677900 0.207500 0.705200
vn 0.947800 0.261000 0.183200
vn 0.674000 0.200300 0.711000
vn 0.678300 0.198200 0.707500
vn 0.157500 0.056900 0.985900
vn 0.677900 0.207500 0.705200
vn 0.945700 0.280300 0.164700
vn -0.157500 0.056900 -0.985900
vn -0.678300 0.198200 -0.707500
vn -0.674000 0.200300 -0.711000
vn -0.677900 0.207500 -0.705200
vn -0.945700 0.280300 -0.164700
vn -0.947800 0.261000 -0.183200
vn 0.674000 0.200300 -0.711000
vn 0.678300 0.198200 -0.707500
vn 0.157500 0.056900 -0.985900
vn 0.945700 0.280300 -0.164700
vn 0.677900 0.207500 -0.705200
vn 0.805900 -0.558500 -0.196600
vn 0.620200 -0.429800 -0.656100
vn 0.162600 -0.650000 -0.742300
vn 0.666000 0.075300 -0.742100
vn -0.966600 0.161500 -0.198700
vn -0.666000 0.075300 -0.742100
vn -0.620200 -0.429800 -0.656100
vn -0.162600 -0.650000 -0.742300
vn -0.805900 -0.558500 -0.196600
vn 0.162600 -0.650000 0.742300
vn 0.620200 -0.429800 0.656100
vn 0.666000 0.075300 0.742100
vn 0.805900 -0.558500 0.196600
vn 0.966600 0.161500 0.198700
vn -0.805900 -0.558500 0.196600
vn -0.620200 -0.429800 0.656100
vn -0.188200 -0.961800 0.198700
vn -0.162600 -0.650000 0.742300
vn -0.666000 0.075300 0.742100
vn 0.147900 0.699300 -0.699300
vn 0.577300 0.577300 -0.577300
vn 0.699300 0.699300 -0.147900
vn 0.967300 0.179400 -0.179400
vn 0.699300 0.147900 -0.699300
vn -0.699300 0.147900 -0.699300
vn -0.577300 0.577300 -0.577300
vn -0.967300 0.179400 -0.179400
vn -0.699300 0.699300 -0.147900
vn -0.147900 0.699300 -0.699300
vn 0.967300 0.179400 0.179400
vn 0.699300 0.699300 0.147900
vn 0.577300 0.577300 0.577300
vn 0.147900 0.699300 0.699300
vn 0.699300 0.147900 0.699300
vn -0.147900 0.699300 0.699300
vn -0.577300 0.577300 0.577300
vn -0.179400 0.967300 0.179400
vn -0.699300 0.699300 0.147900
vn -0.967300 0.179400 0.179400
vn -0.699300 0.147900 0.699300
vn -0.186700 0.049500 -0.981100
vn 0.186700 0.049500 -0.981100
vn 0.188600 0.009800 -0.982000
vn -0.188600 0.009800 0.982000
vn 0.180700 -0.126200 -0.975400
vn -0.180700 -0.126200 0.975400
vn -1.000000 0.000000 0.000000
usemtl Material.001
s 1
f 22/1/1 117/2/2 122/3/3
f 12/4/4 108/5/5 101/6/6
f 38/7/7 28/8/8 10/9/9
f 82/10/10 74/11/11 88/12/12
f 94/13/13 39/14/14 57/15/15
f 81/16/16 56/17/17 67/18/18
f 73/19/19 66/20/20 49/21/21
f 4/22/22 129/23/23 130/24/23
f 116/25/24 102/26/25 110/27/26
f 87/28/27 48/29/28 40/30/29
f 65/31/30 1/32/31 20/33/32
f 37/34/33 47/35/34 19/36/35
f 5/37/36 6/38/37 9/39/38
f 2/40/39 7/41/40 6/38/37
f 8/42/41 6/38/37 7/41/40
f 4/22/22 9/39/38 6/38/37
f 14/43/42 15/44/43 18/45/44
f 11/46/45 16/47/46 15/44/43
f 17/48/47 15/44/43 16/47/46
f 13/49/48 18/45/44 15/44/43
f 19/50/35 23/51/49 24/52/50
f 25/53/51 24/52/50 23/51/49
f 21/54/52 26/55/53 24/52/50
f 27/56/54 24/52/50 26/55/53
f 32/57/55 33/58/56 36/59/57
f 29/60/58 34/61/59 33/58/56
f 35/62/60 33/58/56 34/61/59
f 31/63/61 36/59/57 33/58/56
f 41/64/62 42/65/63 45/66/64
f 38/7/7 43/67/65 42/65/63
f 44/68/66 42/65/63 43/67/65
f 40/69/29 45/66/64 42/65/63
f 46/70/67 50/71/68 51/72/69
f 52/73/70 51/72/69 50/71/68
f 48/74/28 53/75/71 51/72/69
f 54/76/72 51/72/69 53/75/71
f 59/77/73 60/78/74 63/79/75
f 56/80/17 61/81/76 60/78/74
f 62/82/77 60/78/74 61/81/76
f 58/83/78 63/79/75 60/78/74
f 68/84/79 69/85/80 72/86/81
f 65/31/30 70/87/82 69/85/80
f 71/88/83 69/85/80 70/87/82
f 67/89/18 72/86/81 69/85/80
f 73/19/19 76/90/84 77/91/85
f 74/92/11 78/93/86 77/91/85
f 79/94/87 77/91/85 78/93/86
f 80/95/88 83/96/89 84/97/90
f 85/98/91 84/97/90 83/96/89
f 82/99/10 86/100/92 84/97/90
f 90/101/93 91/102/94 93/103/95
f 88/104/12 92/105/96 91/102/94
f 89/106/97 93/103/95 91/102/94
f 94/13/13 97/107/98 98/108/99
f 95/109/100 99/110/101 98/108/99
f 100/111/102 98/108/99 99/110/101
f 101/112/6 104/113/103 105/114/104
f 102/115/25 106/116/105 105/114/104
f 103/117/106 107/118/107 105/114/104
f 108/119/5 111/120/108 112/121/109
f 109/122/110 113/123/111 112/121/109
f 110/124/26 114/125/112 112/121/109
f 115/126/113 118/127/114 119/128/115
f 116/129/24 120/130/116 119/128/115
f 117/131/2 121/132/117 119/128/115
f 122/133/3 125/134/118 126/135/119
f 123/136/120 127/137/121 126/135/119
f 124/138/122 128/139/123 126/135/119
f 55/140/124 63/79/75 18/45/44
f 63/79/75 58/83/78 10/9/9
f 37/141/33 29/60/58 32/57/55
f 41/64/62 32/57/55 28/8/8
f 47/142/34 50/71/68 23/51/49
f 50/71/68 46/70/67 20/33/32
f 64/143/125 2/40/39 5/37/36
f 68/84/79 5/37/36 1/32/31
f 13/144/48 17/145/47 7/146/40
f 17/145/47 12/4/4 3/147/126
f 1/32/31 9/39/38 25/53/51
f 9/39/38 4/22/22 21/54/52
f 19/36/35 27/148/54 34/149/59
f 27/148/54 22/1/1 30/150/127
f 28/8/8 36/59/57 14/43/42
f 36/59/57 31/63/61 11/46/45
f 87/151/27 93/103/95 53/75/71
f 93/103/95 89/106/97 49/21/21
f 75/152/128 67/89/18 71/88/83
f 79/94/87 71/88/83 66/20/20
f 81/153/16 83/96/89 61/81/76
f 83/96/89 80/95/88 57/15/15
f 96/154/129 40/69/29 44/68/66
f 100/111/102 44/68/66 39/14/14
f 39/14/14 43/67/65 62/82/77
f 62/82/77 43/67/65 38/7/7
f 48/29/28 52/155/70 45/156/64
f 45/156/64 52/155/70 47/35/34
f 66/20/20 70/87/82 54/76/72
f 54/76/72 70/87/82 65/31/30
f 56/17/17 59/157/73 72/158/81
f 72/158/81 59/157/73 55/159/124
f 82/10/10 85/160/91 78/161/86
f 85/160/91 81/16/16 75/162/128
f 74/92/11 76/90/84 92/105/96
f 76/90/84 73/19/19 89/106/97
f 88/12/12 90/163/93 99/164/101
f 90/163/93 87/28/27 96/165/129
f 95/109/100 97/107/98 86/100/92
f 97/107/98 94/13/13 80/95/88
f 108/5/5 114/166/112 104/167/103
f 114/166/112 110/27/26 102/26/25
f 103/117/106 106/116/105 118/127/114
f 106/116/105 102/115/25 116/129/24
f 117/2/2 120/168/116 125/169/118
f 120/168/116 116/25/24 123/170/120
f 124/138/122 127/137/121 113/123/111
f 127/137/121 123/136/120 110/124/26
f 101/112/6 107/118/107 8/42/41
f 107/118/107 103/117/106 4/22/22
f 22/171/1 26/55/53 121/132/117
f 26/55/53 21/54/52 115/126/113
f 31/63/61 35/62/60 128/139/123
f 35/62/60 30/172/127 122/133/3
f 109/122/110 111/120/108 16/47/46
f 111/120/108 108/119/5 12/173/4
f 64/174/125 55/159/124 13/144/48
f 115/126/113 132/175/23 131/176/23
f 109/122/110 135/177/130 136/178/130
f 31/63/61 134/179/130 133/180/130
f 30/150/127 22/1/1 122/3/3
f 3/147/126 12/4/4 101/6/6
f 58/83/78 38/7/7 10/9/9
f 95/181/100 82/10/10 88/12/12
f 80/95/88 94/13/13 57/15/15
f 75/162/128 81/16/16 67/18/18
f 89/106/97 73/19/19 49/21/21
f 21/54/52 4/22/22 130/24/23
f 123/170/120 116/25/24 110/27/26
f 96/165/129 87/28/27 40/30/29
f 46/70/67 65/31/30 20/33/32
f 29/182/58 37/34/33 19/36/35
f 1/32/31 5/37/36 9/39/38
f 5/37/36 2/40/39 6/38/37
f 3/183/126 8/42/41 7/41/40
f 8/42/41 4/22/22 6/38/37
f 10/9/9 14/43/42 18/45/44
f 14/43/42 11/46/45 15/44/43
f 12/173/4 17/48/47 16/47/46
f 17/48/47 13/49/48 15/44/43
f 27/56/54 19/50/35 24/52/50
f 20/33/32 25/53/51 23/51/49
f 25/53/51 21/54/52 24/52/50
f 22/171/1 27/56/54 26/55/53
f 28/8/8 32/57/55 36/59/57
f 32/57/55 29/60/58 33/58/56
f 30/172/127 35/62/60 34/61/59
f 35/62/60 31/63/61 33/58/56
f 37/141/33 41/64/62 45/66/64
f 41/64/62 38/7/7 42/65/63
f 39/14/14 44/68/66 43/67/65
f 44/68/66 40/69/29 42/65/63
f 54/76/72 46/70/67 51/72/69
f 47/142/34 52/73/70 50/71/68
f 52/73/70 48/74/28 51/72/69
f 49/21/21 54/76/72 53/75/71
f 55/140/124 59/77/73 63/79/75
f 59/77/73 56/80/17 60/78/74
f 57/15/15 62/82/77 61/81/76
f 62/82/77 58/83/78 60/78/74
f 64/143/125 68/84/79 72/86/81
f 68/84/79 65/31/30 69/85/80
f 66/20/20 71/88/83 70/87/82
f 71/88/83 67/89/18 69/85/80
f 79/94/87 73/19/19 77/91/85
f 76/90/84 74/92/11 77/91/85
f 75/152/128 79/94/87 78/93/86
f 86/100/92 80/95/88 84/97/90
f 81/153/16 85/98/91 83/96/89
f 85/98/91 82/99/10 84/97/90
f 87/151/27 90/101/93 93/103/95
f 90/101/93 88/104/12 91/102/94
f 92/105/96 89/106/97 91/102/94
f 100/111/102 94/13/13 98/108/99
f 97/107/98 95/109/100 98/108/99
f 96/154/129 100/111/102 99/110/101
f 107/118/107 101/112/6 105/114/104
f 104/113/103 102/115/25 105/114/104
f 106/116/105 103/117/106 105/114/104
f 114/125/112 108/119/5 112/121/109
f 111/120/108 109/122/110 112/121/109
f 113/123/111 110/124/26 112/121/109
f 121/132/117 115/126/113 119/128/115
f 118/127/114 116/129/24 119/128/115
f 120/130/116 117/131/2 119/128/115
f 128/139/123 122/133/3 126/135/119
f 125/134/118 123/136/120 126/135/119
f 127/137/121 124/138/122 126/135/119
f 13/49/48 55/140/124 18/45/44
f 18/45/44 63/79/75 10/9/9
f 41/64/62 37/141/33 32/57/55
f 38/7/7 41/64/62 28/8/8
f 19/50/35 47/142/34 23/51/49
f 23/51/49 50/71/68 20/33/32
f 68/84/79 64/143/125 5/37/36
f 65/31/30 68/84/79 1/32/31
f 2/184/39 13/144/48 7/146/40
f 7/146/40 17/145/47 3/147/126
f 20/33/32 1/32/31 25/53/51
f 25/53/51 9/39/38 21/54/52
f 29/182/58 19/36/35 34/149/59
f 34/149/59 27/148/54 30/150/127
f 10/9/9 28/8/8 14/43/42
f 14/43/42 36/59/57 11/46/45
f 48/74/28 87/151/27 53/75/71
f 53/75/71 93/103/95 49/21/21
f 79/94/87 75/152/128 71/88/83
f 73/19/19 79/94/87 66/20/20
f 56/80/17 81/153/16 61/81/76
f 61/81/76 83/96/89 57/15/15
f 100/111/102 96/154/129 44/68/66
f 94/13/13 100/111/102 39/14/14
f 57/15/15 39/14/14 62/82/77
f 58/83/78 62/82/77 38/7/7
f 40/30/29 48/29/28 45/156/64
f 37/34/33 45/156/64 47/35/34
f 49/21/21 66/20/20 54/76/72
f 46/70/67 54/76/72 65/31/30
f 67/18/18 56/17/17 72/158/81
f 64/174/125 72/158/81 55/159/124
f 74/11/11 82/10/10 78/161/86
f 78/161/86 85/160/91 75/162/128
f 88/104/12 74/92/11 92/105/96
f 92/105/96 76/90/84 89/106/97
f 95/181/100 88/12/12 99/164/101
f 99/164/101 90/163/93 96/165/129
f 82/99/10 95/109/100 86/100/92
f 86/100/92 97/107/98 80/95/88
f 101/6/6 108/5/5 104/167/103
f 104/167/103 114/166/112 102/26/25
f 115/126/113 103/117/106 118/127/114
f 118/127/114 106/116/105 116/129/24
f 122/3/3 117/2/2 125/169/118
f 125/169/118 120/168/116 123/170/120
f 109/122/110 124/138/122 113/123/111
f 113/123/111 127/137/121 110/124/26
f 3/183/126 101/112/6 8/42/41
f 8/42/41 107/118/107 4/22/22
f 117/131/2 22/171/1 121/132/117
f 121/132/117 26/55/53 115/126/113
f 124/138/122 31/63/61 128/139/123
f 128/139/123 35/62/60 122/133/3
f 11/46/45 109/122/110 16/47/46
f 16/47/46 111/120/108 12/173/4
f 2/184/39 64/174/125 13/144/48
f 103/117/106 115/126/113 131/176/23
f 124/138/122 109/122/110 136/178/130
f 11/46/45 31/63/61 133/180/130
usemtl Material.002
f 129/23/23 131/176/23 132/175/23
f 134/179/130 136/178/130 135/177/130
f 130/24/23 129/23/23 132/175/23
f 133/180/130 134/179/130 135/177/130
